<mxfile host="app.diagrams.net" modified="2023-05-28T14:27:37.675Z" agent="Mozilla/5.0 (Windows NT 10.0; Win64; x64) AppleWebKit/537.36 (KHTML, like Gecko) Chrome/113.0.0.0 Safari/537.36 Edg/113.0.1774.42" etag="mlWupur2ZIJRdOPUrkXe" version="21.3.2" type="device">
  <diagram name="Page-1" id="SNu0MsDUrkIT3gQTecIE">
    <mxGraphModel dx="1172" dy="636" grid="1" gridSize="10" guides="1" tooltips="1" connect="1" arrows="1" fold="1" page="1" pageScale="1" pageWidth="850" pageHeight="1100" math="0" shadow="0">
      <root>
        <mxCell id="0" />
        <mxCell id="1" parent="0" />
        <mxCell id="gBj2WLhFf5ZpbUW0Cgwh-3" value="" style="rounded=0;whiteSpace=wrap;html=1;" parent="1" vertex="1">
          <mxGeometry x="120" y="75" width="650" height="360" as="geometry" />
        </mxCell>
        <mxCell id="tpDWDKkpqrXtEOYQTr_0-10" style="edgeStyle=orthogonalEdgeStyle;rounded=0;orthogonalLoop=1;jettySize=auto;html=1;" parent="1" source="tpDWDKkpqrXtEOYQTr_0-2" edge="1">
          <mxGeometry relative="1" as="geometry">
            <mxPoint x="630" y="240" as="targetPoint" />
          </mxGeometry>
        </mxCell>
        <mxCell id="3i14GwiFfksSKGTWdqsF-1" style="edgeStyle=orthogonalEdgeStyle;rounded=0;orthogonalLoop=1;jettySize=auto;html=1;entryX=1;entryY=0.25;entryDx=0;entryDy=0;" edge="1" parent="1" source="tpDWDKkpqrXtEOYQTr_0-2" target="tpDWDKkpqrXtEOYQTr_0-4">
          <mxGeometry relative="1" as="geometry">
            <Array as="points">
              <mxPoint x="400" y="325" />
              <mxPoint x="322" y="325" />
            </Array>
          </mxGeometry>
        </mxCell>
        <mxCell id="tpDWDKkpqrXtEOYQTr_0-2" value="Electronics&amp;nbsp;" style="rounded=0;whiteSpace=wrap;html=1;" parent="1" vertex="1">
          <mxGeometry x="370" y="210" width="120" height="60" as="geometry" />
        </mxCell>
        <mxCell id="tpDWDKkpqrXtEOYQTr_0-6" style="edgeStyle=orthogonalEdgeStyle;rounded=0;orthogonalLoop=1;jettySize=auto;html=1;entryX=0.5;entryY=0;entryDx=0;entryDy=0;" parent="1" source="tpDWDKkpqrXtEOYQTr_0-3" target="tpDWDKkpqrXtEOYQTr_0-2" edge="1">
          <mxGeometry relative="1" as="geometry" />
        </mxCell>
        <mxCell id="tpDWDKkpqrXtEOYQTr_0-3" value="" style="shape=image;html=1;verticalAlign=top;verticalLabelPosition=bottom;labelBackgroundColor=#ffffff;imageAspect=0;aspect=fixed;image=https://cdn2.iconfinder.com/data/icons/business-and-education-1/512/133_Solar_Panel_Energy_technology_smart_city_technology_smart-128.png" parent="1" vertex="1">
          <mxGeometry x="160" y="100" width="128" height="128" as="geometry" />
        </mxCell>
        <mxCell id="3i14GwiFfksSKGTWdqsF-3" style="edgeStyle=orthogonalEdgeStyle;rounded=0;orthogonalLoop=1;jettySize=auto;html=1;entryX=0.75;entryY=1;entryDx=0;entryDy=0;" edge="1" parent="1" source="tpDWDKkpqrXtEOYQTr_0-4" target="tpDWDKkpqrXtEOYQTr_0-2">
          <mxGeometry relative="1" as="geometry">
            <Array as="points">
              <mxPoint x="460" y="374" />
            </Array>
          </mxGeometry>
        </mxCell>
        <mxCell id="tpDWDKkpqrXtEOYQTr_0-4" value="" style="shape=image;html=1;verticalAlign=top;verticalLabelPosition=bottom;labelBackgroundColor=#ffffff;imageAspect=0;aspect=fixed;image=https://cdn1.iconfinder.com/data/icons/essential-pack-3/24/97.battery-128.png" parent="1" vertex="1">
          <mxGeometry x="175" y="300" width="98" height="98" as="geometry" />
        </mxCell>
        <mxCell id="tpDWDKkpqrXtEOYQTr_0-8" value="" style="shape=image;html=1;verticalAlign=top;verticalLabelPosition=bottom;labelBackgroundColor=#ffffff;imageAspect=0;aspect=fixed;image=https://cdn2.iconfinder.com/data/icons/home-sweet-home-4/320/fan-128.png" parent="1" vertex="1">
          <mxGeometry x="640" y="160" width="90" height="90" as="geometry" />
        </mxCell>
        <mxCell id="tpDWDKkpqrXtEOYQTr_0-9" value="" style="shape=image;html=1;verticalAlign=top;verticalLabelPosition=bottom;labelBackgroundColor=#ffffff;imageAspect=0;aspect=fixed;image=https://cdn1.iconfinder.com/data/icons/iconoir-vol-3/24/light-bulb-on-128.png" parent="1" vertex="1">
          <mxGeometry x="650" y="280" width="70" height="70" as="geometry" />
        </mxCell>
        <mxCell id="tpDWDKkpqrXtEOYQTr_0-12" value="DC" style="text;html=1;strokeColor=none;fillColor=none;align=center;verticalAlign=middle;whiteSpace=wrap;rounded=0;" parent="1" vertex="1">
          <mxGeometry x="510" y="240" width="60" height="30" as="geometry" />
        </mxCell>
        <mxCell id="tpDWDKkpqrXtEOYQTr_0-13" value="DC" style="text;html=1;strokeColor=none;fillColor=none;align=center;verticalAlign=middle;whiteSpace=wrap;rounded=0;" parent="1" vertex="1">
          <mxGeometry x="330" y="130" width="60" height="30" as="geometry" />
        </mxCell>
        <mxCell id="tpDWDKkpqrXtEOYQTr_0-15" value="DC" style="text;html=1;strokeColor=none;fillColor=none;align=center;verticalAlign=middle;whiteSpace=wrap;rounded=0;" parent="1" vertex="1">
          <mxGeometry x="310" y="300" width="60" height="30" as="geometry" />
        </mxCell>
        <mxCell id="3i14GwiFfksSKGTWdqsF-4" value="DC" style="text;html=1;strokeColor=none;fillColor=none;align=center;verticalAlign=middle;whiteSpace=wrap;rounded=0;" vertex="1" parent="1">
          <mxGeometry x="310" y="380" width="60" height="30" as="geometry" />
        </mxCell>
      </root>
    </mxGraphModel>
  </diagram>
</mxfile>
